<?xml version="1.0" encoding="iso-8859-1"?>
<!-- Generator: Adobe Illustrator 19.0.0, SVG Export Plug-In . SVG Version: 6.00 Build 0)  -->
<svg version="1.1" id="Capa_1" xmlns="http://www.w3.org/2000/svg" xmlns:xlink="http://www.w3.org/1999/xlink" x="0px" y="0px"
	 viewBox="0 0 490 490" style="enable-background:new 0 0 490 490;" xml:space="preserve">
<g>
	<g>
		<path d="M458.8,0.05H31.2C13.5,0.05,0,14.65,0,31.25v325.6c0,17.7,14.6,31.2,31.2,31.2h193.5v60.3h-61.4
			c-11.4,0-20.8,9.4-20.8,20.8c0,11.4,9.4,20.8,20.8,20.8h164.4c11.4,0,19.8-8.3,20.8-20.8c0-11.4-9.4-20.8-20.8-20.8h-61.4v-60.3
			h193.5c16.6,0,30.2-13.5,30.2-31.2V31.25C490,13.55,475.4,0.05,458.8,0.05z M449.4,347.55H41.6V41.65h407.8V347.55z"/>
		<path d="M84.3,329.85h322.5c10.4,0,19.8-9.4,19.8-20.8V80.15c0-11.4-9.4-20.8-20.8-20.8H84.3c-11.4,0-20.8,9.4-20.8,20.8v228.9
			C63.5,320.45,72.8,329.85,84.3,329.85z M105.1,100.95H386v188.3H105.1V100.95z"/>
	</g>
</g>
<g>
</g>
<g>
</g>
<g>
</g>
<g>
</g>
<g>
</g>
<g>
</g>
<g>
</g>
<g>
</g>
<g>
</g>
<g>
</g>
<g>
</g>
<g>
</g>
<g>
</g>
<g>
</g>
<g>
</g>
</svg>
